<svg width="162" height="142" viewBox="0 0 162 142" fill="none" xmlns="http://www.w3.org/2000/svg">
<path d="M161.477 35.3231V126.154C161.477 134.512 154.696 141.292 146.338 141.292H15.1385C6.78077 141.292 0 134.512 0 126.154V35.3231C0 26.9654 6.78077 20.1846 15.1385 20.1846H42.8923L46.7715 9.80846C48.9792 3.91077 54.6246 0 60.9323 0H100.513C106.821 0 112.466 3.91077 114.674 9.80846L118.585 20.1846H146.338C154.696 20.1846 161.477 26.9654 161.477 35.3231ZM118.585 80.7385C118.585 59.86 101.617 42.8923 80.7385 42.8923C59.86 42.8923 42.8923 59.86 42.8923 80.7385C42.8923 101.617 59.86 118.585 80.7385 118.585C101.617 118.585 118.585 101.617 118.585 80.7385ZM108.492 80.7385C108.492 96.0346 96.0346 108.492 80.7385 108.492C65.4423 108.492 52.9846 96.0346 52.9846 80.7385C52.9846 65.4423 65.4423 52.9846 80.7385 52.9846C96.0346 52.9846 108.492 65.4423 108.492 80.7385Z" fill="#9D76C1"/>
</svg>
