<svg width="600" height="600" viewBox="0 0 600 600" fill="none" xmlns="http://www.w3.org/2000/svg">
<path d="M421.431 112.512C417.819 110.35 415.993 113.566 415.531 115.445C415.241 117.924 413.718 115.797 412.993 114.423C411.829 112.676 410.621 107.864 415.103 102.591C420.707 95.9989 426.64 101.042 428.617 102.723C430.595 104.404 432.671 107.305 431.945 113.502C431.365 118.459 427.155 120.027 425.122 120.192C424.496 120.038 423.355 119.599 423.804 119.071C424.364 118.412 425.946 115.215 421.431 112.512Z" fill="#BEADFA"/>
<path d="M254.231 81.0557C255.992 80.7731 255.699 79.2898 255.332 78.5835C254.745 77.7359 255.821 77.9949 256.432 78.2303C257.288 78.4658 259 79.643 259 82.4683C259 86 255.699 86 254.598 86C253.498 86 252.031 85.6468 250.563 83.5278C249.39 81.8326 250.319 80.2316 250.93 79.643C251.175 79.5253 251.664 79.3605 251.664 79.643C251.664 79.9962 252.031 81.4088 254.231 81.0557Z" fill="#BEADFA"/>
<path d="M260.84 332.012C258.7 334.346 260.794 336.179 262.108 336.803C263.89 337.392 262.093 338.192 260.971 338.518C259.508 339.111 255.78 339.273 252.573 335.173C248.565 330.047 253.178 326.439 254.716 325.237C256.254 324.035 258.705 322.944 263.16 324.416C266.725 325.594 267.243 328.933 267.057 330.456C266.849 330.894 266.352 331.667 266.031 331.257C265.631 330.745 263.515 329.095 260.84 332.012Z" fill="#BEADFA"/>
<path d="M289.828 287.824C291.441 290.395 293.666 288.926 294.577 287.87C295.575 286.372 295.857 288.237 295.873 289.356C296.05 290.859 295.252 294.346 290.648 296.267C284.892 298.668 282.731 293.488 282.01 291.762C281.29 290.035 280.905 287.493 283.398 283.75C285.392 280.755 288.609 281.124 289.969 281.684C290.321 281.987 290.91 282.642 290.449 282.835C289.874 283.075 287.812 284.611 289.828 287.824Z" fill="#BEADFA"/>
<path d="M121.765 184.977C122.201 188.55 125.331 188.095 126.841 187.42C128.666 186.316 128.029 188.459 127.483 189.669C126.915 191.372 124.301 194.713 118.389 194.454C111 194.13 111.291 187.48 111.388 185.263C111.485 183.046 112.353 180.123 116.916 177.361C120.567 175.152 123.835 177.171 125.012 178.456C125.237 178.959 125.539 179.96 124.948 179.934C124.209 179.902 121.221 180.511 121.765 184.977Z" fill="#BEADFA"/>
<path d="M482.008 273.192C483.643 274.993 485.193 273.52 485.763 272.559C486.339 271.236 486.824 272.668 486.995 273.549C487.346 274.711 487.208 277.575 483.844 279.74C479.64 282.446 477.204 278.662 476.393 277.401C475.581 276.139 474.919 274.187 476.359 270.882C477.511 268.237 480.102 268.075 481.254 268.325C481.575 268.515 482.132 268.95 481.795 269.166C481.375 269.437 479.964 270.94 482.008 273.192Z" fill="#BEADFA" stroke="#59B8E1"/>
<path fill-rule="evenodd" clip-rule="evenodd" d="M267.046 257.005V280.505C266.712 286.672 262.046 299.505 246.046 301.505C230.046 303.505 220.379 325.005 217.546 335.505C215.379 341.005 205.946 352.605 185.546 355.005C165.146 357.405 152.712 344.339 149.046 337.505C146.879 332.672 142.446 322.205 142.046 319.005C141.646 315.805 141.212 295.672 141.046 286.005C140.379 284.005 146.746 276.505 177.546 262.505C208.346 248.505 250.046 253.005 267.046 257.005ZM189.543 306.591C188.229 305.966 186.135 304.134 188.275 301.8C190.95 298.883 193.065 300.532 193.466 301.045C193.787 301.455 194.283 300.681 194.491 300.243C194.678 298.721 194.159 295.382 190.595 294.204C186.14 292.732 183.689 293.822 182.151 295.025C180.613 296.227 176 299.834 180.008 304.96C183.215 309.061 186.943 308.899 188.406 308.306C189.527 307.979 191.325 307.179 189.543 306.591Z" fill="url(#paint0_linear_14_72)"/>
<path d="M441.517 328.5C444.717 321.7 444.85 292.667 444.517 279C440.684 282 430.317 289.6 419.517 296C406.017 304 363.017 322.5 364.017 328.5C364.817 333.3 373.017 342.5 377.017 346.5C384.684 352.667 403.517 363 417.517 355C435.017 345 437.517 337 441.517 328.5Z" fill="#5B0888" stroke="#1B3254"/>
<path d="M355.585 260.216C349.585 261.416 328.085 261.716 318.085 261.716C316.885 261.316 316.918 265.216 317.085 267.216V272.716L317.585 277.216C317.751 277.882 318.285 280.116 319.085 283.716C319.885 287.316 320.751 289.882 321.085 290.716L322.085 292.716C322.251 293.382 323.085 294.516 325.085 293.716C327.585 292.716 325.085 294.216 332.085 288.216C339.085 282.216 338.085 283.216 345.085 277.716C352.085 272.216 353.085 272.216 357.585 268.716C362.085 265.216 366.585 262.716 368.085 261.716C369.285 260.916 372.918 259.049 374.585 258.216C378.751 255.882 385.085 252.016 377.085 255.216C367.085 259.216 363.085 258.716 355.585 260.216Z" fill="#5B0888" stroke="#23426F"/>
<path fill-rule="evenodd" clip-rule="evenodd" d="M276.883 42.37H305.788C305.546 42.8596 305.241 43.9007 304.883 45.87C304.383 48.6199 304.383 48.62 304.321 49.0575C304.258 49.495 304.133 50.3699 303.383 54.87C302.183 62.07 301.55 75.2033 301.383 80.87V107.37C301.383 107.87 302.383 129.37 306.383 138.37C310.383 147.37 320.883 163.37 328.383 166.37C334.383 168.77 335.55 164.037 335.383 161.37L331.883 148.37L329.383 134.87V121.37C329.883 117.203 331.783 107.87 335.383 103.87L335.655 103.568C339.988 98.7494 342.586 95.8599 352.383 95.37C360.383 94.97 370.383 100.87 374.383 103.87C379.883 107.703 392.083 117.47 396.883 125.87C399.405 130.282 400.778 131.869 402.34 133.673C404.494 136.162 407.006 139.065 413.383 150.37C422.183 165.97 422.383 169.203 421.383 168.87C420.05 171.203 413.983 177.67 400.383 184.87C386.783 192.07 365.717 194.203 356.883 194.37C352.383 194.703 342.083 195.17 336.883 194.37C331.683 193.57 315.717 182.37 308.383 176.87L292.383 163.37H290.883C281.05 171.87 259.583 189.17 252.383 190.37C245.183 191.57 227.05 191.87 218.883 191.87C211.883 192.203 195.983 193.57 188.383 196.37C184.285 197.88 181.025 198.738 177.799 199.588C173.546 200.707 169.354 201.811 163.383 204.37C152.883 208.87 148.883 210.87 146.883 212.87C145.283 214.47 146.217 210.537 146.883 208.37C149.05 199.703 153.883 181.47 155.883 177.87C156.583 176.612 157.204 174.962 158.009 172.823C160.083 167.313 163.379 158.556 172.383 144.87C182.383 129.67 195.217 115.87 200.383 110.87C206.883 104.537 222.083 92.37 230.883 94.37C239.683 96.37 246.883 104.537 249.383 108.37C250.55 111.037 252.883 117.57 252.883 122.37C252.883 127.17 252.217 137.037 251.883 141.37C251.217 145.537 249.683 154.27 248.883 155.87C247.883 157.87 247.383 163.37 247.883 163.37C248.018 163.37 248.008 163.406 247.979 163.508C247.902 163.783 247.69 164.542 249.883 166.37C252.283 168.37 256.883 165.203 258.883 163.37L268.883 152.37C271.383 149.537 276.583 142.57 277.383 137.37C278.183 132.17 279.383 125.203 279.883 122.37C280.217 117.703 280.883 107.57 280.883 104.37C280.883 101.17 281.217 88.0367 281.383 81.87C281.55 77.87 281.583 68.17 280.383 61.37C278.883 52.8702 278.883 52.87 277.884 48.8703L277.883 48.87C277.083 45.67 276.217 43.2033 275.883 42.37H276.883ZM305.788 42.37C306.087 41.7656 306.291 42.0017 306.383 42.37H305.788ZM206.008 157.192C207.643 158.993 209.193 157.52 209.763 156.559C210.339 155.236 210.824 156.668 210.995 157.549C211.346 158.711 211.208 161.575 207.844 163.74C203.64 166.446 201.204 162.662 200.392 161.401C199.581 160.139 198.919 158.187 200.359 154.882C201.511 152.237 204.102 152.075 205.254 152.325C205.575 152.515 206.132 152.95 205.795 153.166C205.375 153.437 203.964 154.94 206.008 157.192ZM376.307 149.155C376.872 150.12 377.41 152.189 375.042 152.747C372.081 153.444 371.45 151.482 371.417 150.983C371.39 150.584 370.741 150.861 370.419 151.049C369.643 151.936 368.529 154.281 370.284 156.57C372.478 159.431 374.507 159.798 376.004 159.698C377.5 159.599 381.991 159.301 381.66 154.312C381.395 150.321 378.957 148.812 377.77 148.557C376.917 148.28 375.429 148.011 376.307 149.155Z" fill="url(#paint1_linear_14_72)"/>
<path d="M304.883 45.87L305.375 45.9594L305.375 45.9594L304.883 45.87ZM304.321 49.0575L304.816 49.1282L304.816 49.1282L304.321 49.0575ZM303.383 54.87L302.89 54.7878L302.89 54.7878L303.383 54.87ZM301.383 80.87L300.884 80.8553L300.883 80.8626V80.87H301.383ZM328.383 166.37L328.569 165.906L328.569 165.906L328.383 166.37ZM335.383 161.37L335.882 161.339L335.879 161.289L335.866 161.24L335.383 161.37ZM331.883 148.37L331.392 148.461L331.395 148.481L331.401 148.5L331.883 148.37ZM329.383 134.87H328.883V134.916L328.892 134.961L329.383 134.87ZM329.383 121.37L328.887 121.31L328.883 121.34V121.37H329.383ZM335.383 103.87L335.755 104.204L335.755 104.204L335.383 103.87ZM335.655 103.568L336.026 103.903L336.026 103.903L335.655 103.568ZM352.383 95.37L352.408 95.8694L352.408 95.8694L352.383 95.37ZM374.383 103.87L374.083 104.27L374.09 104.275L374.098 104.28L374.383 103.87ZM396.883 125.87L397.318 125.622L397.318 125.622L396.883 125.87ZM402.34 133.673L401.962 134.001L401.962 134.001L402.34 133.673ZM413.383 150.37L412.948 150.616L412.948 150.616L413.383 150.37ZM421.383 168.87L421.542 168.396L421.153 168.266L420.949 168.622L421.383 168.87ZM356.883 194.37L356.874 193.87L356.86 193.87L356.847 193.871L356.883 194.37ZM308.383 176.87L308.061 177.252L308.072 177.261L308.083 177.27L308.383 176.87ZM292.383 163.37L292.706 162.988L292.566 162.87H292.383V163.37ZM290.883 163.37V162.87H290.697L290.556 162.992L290.883 163.37ZM218.883 191.87V191.37H218.872L218.86 191.371L218.883 191.87ZM188.383 196.37L188.556 196.839L188.556 196.839L188.383 196.37ZM177.799 199.588L177.672 199.104L177.672 199.104L177.799 199.588ZM163.383 204.37L163.186 203.91L163.186 203.91L163.383 204.37ZM146.883 212.87L146.53 212.516L146.53 212.516L146.883 212.87ZM146.883 208.37L147.361 208.517L147.365 208.504L147.369 208.491L146.883 208.37ZM155.883 177.87L155.446 177.627L155.446 177.627L155.883 177.87ZM158.009 172.823L158.477 172.999L158.477 172.999L158.009 172.823ZM172.383 144.87L172.801 145.145L172.801 145.145L172.383 144.87ZM200.383 110.87L200.731 111.229L200.732 111.228L200.383 110.87ZM249.383 108.37L249.842 108.17L249.825 108.132L249.802 108.097L249.383 108.37ZM251.883 141.37L252.377 141.449L252.38 141.429L252.382 141.408L251.883 141.37ZM248.883 155.87L248.436 155.646L248.436 155.646L248.883 155.87ZM247.979 163.508L248.461 163.642L248.461 163.642L247.979 163.508ZM249.883 166.37L249.563 166.754L249.563 166.754L249.883 166.37ZM258.883 163.37L259.221 163.739L259.238 163.723L259.253 163.706L258.883 163.37ZM268.883 152.37L269.253 152.706L269.258 152.701L268.883 152.37ZM279.883 122.37L280.376 122.457L280.38 122.431L280.382 122.406L279.883 122.37ZM281.383 81.87L280.884 81.8492L280.884 81.8565L281.383 81.87ZM280.383 61.37L280.876 61.2831L280.876 61.2831L280.383 61.37ZM277.884 48.8703L278.369 48.749L278.365 48.735L278.361 48.7213L277.884 48.8703ZM277.883 48.87L277.398 48.9913L277.402 49.0052L277.406 49.019L277.883 48.87ZM275.883 42.37V41.87H275.145L275.419 42.5557L275.883 42.37ZM306.383 42.37V42.87H307.024L306.869 42.2487L306.383 42.37ZM209.763 156.559L210.193 156.814L210.209 156.787L210.221 156.758L209.763 156.559ZM206.008 157.192L205.638 157.528L205.638 157.528L206.008 157.192ZM210.995 157.549L210.504 157.644L210.509 157.67L210.516 157.694L210.995 157.549ZM207.844 163.74L208.115 164.16L208.115 164.16L207.844 163.74ZM200.392 161.401L199.972 161.671L199.972 161.671L200.392 161.401ZM200.359 154.882L200.817 155.081L200.817 155.081L200.359 154.882ZM205.254 152.325L205.509 151.895L205.439 151.854L205.36 151.837L205.254 152.325ZM375.042 152.747L375.156 153.233L375.156 153.233L375.042 152.747ZM376.307 149.155L376.738 148.902L376.722 148.876L376.703 148.851L376.307 149.155ZM371.417 150.983L371.916 150.95L371.916 150.95L371.417 150.983ZM370.419 151.049L370.166 150.617L370.096 150.658L370.043 150.719L370.419 151.049ZM370.284 156.57L370.681 156.266L370.681 156.266L370.284 156.57ZM376.004 159.698L376.037 160.197L376.037 160.197L376.004 159.698ZM381.66 154.312L382.159 154.279L382.159 154.279L381.66 154.312ZM377.77 148.557L377.616 149.033L377.64 149.04L377.665 149.046L377.77 148.557ZM305.788 41.87H276.883V42.87H305.788V41.87ZM305.375 45.9594C305.734 43.9885 306.029 43.0112 306.237 42.5917L305.34 42.1482C305.063 42.7079 304.749 43.8129 304.392 45.7805L305.375 45.9594ZM304.816 49.1282C304.877 48.7027 304.874 48.7155 305.375 45.9594L304.392 45.7805C303.893 48.5244 303.89 48.5372 303.826 48.9868L304.816 49.1282ZM303.877 54.9522C304.627 50.4514 304.753 49.5717 304.816 49.1282L303.826 48.9868C303.764 49.4182 303.64 50.2884 302.89 54.7878L303.877 54.9522ZM301.883 80.8847C302.05 75.2161 302.683 62.1144 303.877 54.9522L302.89 54.7878C301.684 62.0256 301.05 75.1905 300.884 80.8553L301.883 80.8847ZM301.883 107.37V80.87H300.883V107.37H301.883ZM306.84 138.167C304.876 133.746 303.631 126.194 302.88 119.626C302.506 116.353 302.257 113.345 302.101 111.124C302.023 110.014 301.969 109.1 301.933 108.45C301.916 108.124 301.903 107.865 301.895 107.68C301.891 107.587 301.888 107.513 301.886 107.459C301.885 107.432 301.884 107.411 301.884 107.395C301.884 107.387 301.884 107.381 301.884 107.376C301.883 107.371 301.883 107.369 301.883 107.37H300.883C300.883 107.647 301.136 113.168 301.887 119.739C302.636 126.296 303.891 133.994 305.927 138.573L306.84 138.167ZM328.569 165.906C326.785 165.192 324.779 163.684 322.695 161.638C320.618 159.6 318.494 157.059 316.473 154.323C312.429 148.848 308.824 142.63 306.84 138.167L305.927 138.573C307.943 143.11 311.588 149.392 315.669 154.917C317.71 157.681 319.868 160.265 321.994 162.352C324.113 164.431 326.232 166.048 328.198 166.834L328.569 165.906ZM334.884 161.401C334.964 162.68 334.714 164.375 333.813 165.449C333.376 165.97 332.779 166.354 331.955 166.482C331.12 166.612 330.015 166.484 328.569 165.906L328.198 166.834C329.752 167.456 331.043 167.636 332.109 167.47C333.186 167.303 333.996 166.787 334.579 166.091C335.72 164.732 335.969 162.727 335.882 161.339L334.884 161.401ZM331.401 148.5L334.901 161.5L335.866 161.24L332.366 148.24L331.401 148.5ZM328.892 134.961L331.392 148.461L332.375 148.279L329.875 134.779L328.892 134.961ZM328.883 121.37V134.87H329.883V121.37H328.883ZM335.012 103.536C333.132 105.624 331.732 109.05 330.741 112.416C329.745 115.801 329.14 119.203 328.887 121.31L329.88 121.43C330.127 119.37 330.722 116.023 331.701 112.699C332.685 109.356 334.035 106.116 335.755 104.204L335.012 103.536ZM335.283 103.234L335.012 103.536L335.755 104.204L336.026 103.903L335.283 103.234ZM352.358 94.8706C347.414 95.1178 344.229 95.9731 341.721 97.4121C339.224 98.8447 337.44 100.836 335.283 103.234L336.026 103.903C338.203 101.482 339.884 99.6189 342.219 98.2795C344.542 96.9465 347.555 96.112 352.408 95.8694L352.358 94.8706ZM374.683 103.47C372.656 101.95 369.125 99.7053 365.089 97.889C361.062 96.077 356.476 94.6648 352.358 94.8706L352.408 95.8694C356.291 95.6752 360.705 97.013 364.678 98.801C368.642 100.585 372.11 102.79 374.083 104.27L374.683 103.47ZM397.318 125.622C394.878 121.353 390.581 116.769 386.234 112.789C381.878 108.802 377.436 105.388 374.669 103.46L374.098 104.28C376.831 106.185 381.238 109.572 385.558 113.526C389.886 117.488 394.089 121.987 396.449 126.118L397.318 125.622ZM402.718 133.346C401.172 131.56 399.819 129.999 397.318 125.622L396.449 126.118C398.991 130.565 400.385 132.179 401.962 134.001L402.718 133.346ZM413.819 150.124C407.428 138.795 404.897 135.864 402.718 133.346L401.962 134.001C404.091 136.46 406.584 139.334 412.948 150.616L413.819 150.124ZM421.225 169.344C421.34 169.383 421.486 169.409 421.643 169.381C421.811 169.351 421.96 169.264 422.071 169.132C422.268 168.897 422.301 168.576 422.293 168.298C422.274 167.709 422.041 166.783 421.526 165.418C420.487 162.665 418.222 157.93 413.819 150.124L412.948 150.616C417.345 158.41 419.58 163.092 420.591 165.772C421.101 167.124 421.28 167.918 421.293 168.329C421.3 168.552 421.254 168.55 421.305 168.489C421.343 168.444 421.402 168.408 421.467 168.396C421.522 168.387 421.552 168.399 421.542 168.396L421.225 169.344ZM400.617 185.312C407.444 181.698 412.39 178.262 415.803 175.43C419.204 172.607 421.107 170.361 421.818 169.118L420.949 168.622C420.326 169.712 418.53 171.867 415.164 174.66C411.81 177.444 406.922 180.842 400.149 184.428L400.617 185.312ZM356.893 194.87C361.335 194.786 368.837 194.209 376.935 192.75C385.027 191.292 393.751 188.947 400.617 185.312L400.149 184.428C393.416 187.993 384.807 190.315 376.757 191.765C368.713 193.215 361.265 193.787 356.874 193.87L356.893 194.87ZM336.807 194.864C342.072 195.674 352.428 195.201 356.92 194.869L356.847 193.871C352.339 194.205 342.095 194.666 336.959 193.876L336.807 194.864ZM308.083 177.27C311.757 180.025 317.592 184.207 323.162 187.803C325.947 189.6 328.673 191.255 331.033 192.513C333.373 193.76 335.414 194.65 336.807 194.864L336.959 193.876C335.753 193.69 333.848 192.88 331.503 191.63C329.178 190.391 326.478 188.752 323.705 186.962C318.159 183.383 312.343 179.215 308.683 176.47L308.083 177.27ZM292.061 163.752L308.061 177.252L308.706 176.488L292.706 162.988L292.061 163.752ZM290.883 163.87H292.383V162.87H290.883V163.87ZM252.466 190.863C254.371 190.546 257.137 189.189 260.313 187.268C263.51 185.333 267.189 182.783 270.943 180.01C278.452 174.463 286.287 168.004 291.21 163.748L290.556 162.992C285.647 167.236 277.832 173.677 270.349 179.205C266.607 181.97 262.955 184.5 259.795 186.413C256.613 188.338 253.996 189.594 252.301 189.877L252.466 190.863ZM218.883 192.37C227.037 192.37 245.216 192.071 252.466 190.863L252.301 189.877C245.151 191.069 227.064 191.37 218.883 191.37V192.37ZM188.556 196.839C192.298 195.461 198.123 194.424 203.921 193.691C209.707 192.96 215.419 192.536 218.907 192.369L218.86 191.371C215.348 191.538 209.61 191.964 203.796 192.699C197.993 193.433 192.069 194.479 188.211 195.901L188.556 196.839ZM177.926 200.071C181.153 199.222 184.434 198.358 188.556 196.839L188.211 195.901C184.137 197.402 180.897 198.255 177.672 199.104L177.926 200.071ZM163.58 204.83C169.516 202.286 173.679 201.19 177.926 200.071L177.672 199.104C173.414 200.225 169.192 201.336 163.186 203.91L163.58 204.83ZM147.237 213.224C148.181 212.28 149.625 211.308 152.174 210.003C154.719 208.699 158.33 207.08 163.58 204.83L163.186 203.91C157.937 206.16 154.297 207.791 151.718 209.112C149.142 210.432 147.586 211.46 146.53 212.516L147.237 213.224ZM146.406 208.223C146.07 209.312 145.659 210.874 145.536 211.977C145.506 212.255 145.491 212.521 145.505 212.751C145.518 212.961 145.558 213.228 145.708 213.438C145.793 213.556 145.919 213.664 146.092 213.715C146.261 213.764 146.421 213.743 146.552 213.7C146.795 213.621 147.024 213.437 147.237 213.224L146.53 212.516C146.443 212.604 146.373 212.663 146.319 212.702C146.264 212.742 146.239 212.75 146.241 212.75C146.246 212.748 146.297 212.733 146.372 212.755C146.452 212.778 146.5 212.826 146.521 212.856C146.544 212.887 146.514 212.861 146.504 212.69C146.494 212.539 146.503 212.337 146.53 212.087C146.642 211.082 147.03 209.594 147.361 208.517L146.406 208.223ZM155.446 177.627C154.919 178.576 154.229 180.436 153.463 182.78C152.692 185.14 151.83 188.035 150.965 191.083C149.234 197.182 147.483 203.912 146.398 208.249L147.369 208.491C148.451 204.161 150.2 197.442 151.927 191.357C152.791 188.314 153.648 185.433 154.413 183.091C155.184 180.733 155.848 178.964 156.321 178.113L155.446 177.627ZM157.541 172.647C156.731 174.799 156.124 176.408 155.446 177.627L156.321 178.113C157.042 176.815 157.676 175.125 158.477 172.999L157.541 172.647ZM171.966 144.595C162.934 158.324 159.622 167.118 157.541 172.647L158.477 172.999C160.543 167.509 163.825 158.789 172.801 145.145L171.966 144.595ZM200.036 110.511C194.85 115.529 181.991 129.357 171.966 144.595L172.801 145.145C182.776 129.983 195.583 116.211 200.731 111.229L200.036 110.511ZM230.994 93.8824C228.664 93.3528 225.96 93.7689 223.156 94.7413C220.343 95.7164 217.38 97.2682 214.505 99.0714C208.756 102.678 203.303 107.327 200.034 110.512L200.732 111.228C203.964 108.08 209.361 103.479 215.037 99.9186C217.874 98.1384 220.767 96.6278 223.483 95.6862C226.206 94.742 228.703 94.3871 230.773 94.8576L230.994 93.8824ZM249.802 108.097C248.527 106.142 246.071 103.106 242.822 100.304C239.576 97.5034 235.503 94.9072 230.994 93.8824L230.773 94.8576C235.064 95.8328 238.991 98.3199 242.169 101.061C245.345 103.801 247.74 106.765 248.965 108.643L249.802 108.097ZM253.383 122.37C253.383 119.902 252.786 117.016 252.052 114.433C251.316 111.844 250.434 109.523 249.842 108.17L248.925 108.57C249.5 109.884 250.367 112.162 251.09 114.707C251.814 117.257 252.383 120.038 252.383 122.37H253.383ZM252.382 141.408C252.715 137.078 253.383 127.192 253.383 122.37H252.383C252.383 127.148 251.718 136.995 251.385 141.332L252.382 141.408ZM249.331 156.094C249.561 155.633 249.818 154.73 250.082 153.632C250.351 152.513 250.64 151.133 250.924 149.678C251.492 146.767 252.043 143.536 252.377 141.449L251.39 141.291C251.057 143.371 250.508 146.59 249.943 149.487C249.66 150.936 249.374 152.3 249.11 153.398C248.84 154.519 248.606 155.307 248.436 155.646L249.331 156.094ZM247.883 162.87C248.119 162.87 248.224 163.039 248.234 163.058C248.25 163.085 248.243 163.085 248.231 163.028C248.209 162.92 248.192 162.736 248.188 162.472C248.181 161.954 248.225 161.227 248.318 160.427C248.505 158.806 248.873 157.008 249.331 156.094L248.436 155.646C247.894 156.732 247.512 158.684 247.324 160.313C247.229 161.138 247.18 161.911 247.188 162.487C247.192 162.77 247.21 163.03 247.252 163.232C247.273 163.328 247.305 163.449 247.368 163.558C247.426 163.658 247.585 163.87 247.883 163.87V162.87ZM248.461 163.642C248.465 163.627 248.481 163.575 248.489 163.523C248.496 163.478 248.517 163.334 248.441 163.179C248.351 162.997 248.192 162.924 248.096 162.896C248.01 162.872 247.929 162.87 247.883 162.87V163.87C247.905 163.87 247.873 163.873 247.823 163.858C247.761 163.841 247.624 163.783 247.544 163.622C247.478 163.489 247.5 163.373 247.502 163.364C247.504 163.347 247.508 163.337 247.498 163.373L248.461 163.642ZM250.204 165.986C249.13 165.091 248.699 164.501 248.533 164.145C248.453 163.973 248.437 163.863 248.436 163.801C248.434 163.741 248.444 163.701 248.461 163.642L247.498 163.373C247.476 163.452 247.43 163.61 247.436 163.827C247.441 164.042 247.496 164.287 247.627 164.568C247.884 165.118 248.443 165.821 249.563 166.754L250.204 165.986ZM258.546 163.001C257.571 163.895 255.964 165.11 254.327 165.852C252.646 166.614 251.159 166.782 250.204 165.986L249.563 166.754C251.007 167.958 253.021 167.542 254.74 166.763C256.502 165.964 258.196 164.678 259.221 163.739L258.546 163.001ZM268.513 152.034L258.513 163.034L259.253 163.706L269.253 152.706L268.513 152.034ZM276.889 137.294C276.505 139.79 275.051 142.761 273.347 145.493C271.65 148.213 269.742 150.641 268.509 152.039L269.258 152.701C270.525 151.266 272.467 148.794 274.195 146.022C275.916 143.263 277.462 140.15 277.878 137.446L276.889 137.294ZM279.391 122.283C278.891 125.118 277.69 132.089 276.889 137.294L277.878 137.446C278.677 132.251 279.876 125.289 280.376 122.457L279.391 122.283ZM280.383 104.37C280.383 107.548 279.719 117.659 279.385 122.334L280.382 122.406C280.715 117.748 281.383 107.592 281.383 104.37H280.383ZM280.884 81.8565C280.717 88.0187 280.383 101.161 280.383 104.37H281.383C281.383 101.179 281.716 88.0547 281.883 81.8835L280.884 81.8565ZM279.891 61.4569C281.081 68.2022 281.05 77.8584 280.884 81.8492L281.883 81.8908C282.05 77.8815 282.085 68.1378 280.876 61.2831L279.891 61.4569ZM277.398 48.9916C278.394 52.9733 278.391 52.959 279.891 61.4569L280.876 61.2831C279.376 52.7814 279.373 52.7667 278.369 48.749L277.398 48.9916ZM277.406 49.019L277.406 49.0193L278.361 48.7213L278.361 48.721L277.406 49.019ZM275.419 42.5557C275.743 43.366 276.603 45.811 277.398 48.9913L278.368 48.7487C277.564 45.529 276.69 43.0406 276.348 42.1843L275.419 42.5557ZM276.883 41.87H275.883V42.87H276.883V41.87ZM306.237 42.5917C306.3 42.4625 306.336 42.4283 306.331 42.4326C306.326 42.4373 306.296 42.4639 306.239 42.4825C306.176 42.5032 306.099 42.5074 306.022 42.4847C305.95 42.4637 305.905 42.4273 305.884 42.4065C305.864 42.3864 305.857 42.3729 305.859 42.3772C305.865 42.3876 305.881 42.4236 305.898 42.4912L306.869 42.2487C306.839 42.1322 306.796 42.0006 306.728 41.882C306.669 41.7781 306.541 41.5954 306.305 41.5257C306.027 41.4435 305.795 41.5687 305.658 41.6938C305.528 41.8123 305.426 41.9753 305.34 42.1482L306.237 42.5917ZM306.383 41.87H305.788V42.87H306.383V41.87ZM209.333 156.304C209.078 156.734 208.621 157.24 208.1 157.447C207.852 157.545 207.597 157.574 207.331 157.504C207.061 157.434 206.738 157.252 206.378 156.856L205.638 157.528C206.096 158.032 206.579 158.342 207.078 158.472C207.58 158.603 208.054 158.541 208.469 158.376C209.275 158.056 209.878 157.345 210.193 156.814L209.333 156.304ZM211.486 157.454C211.44 157.217 211.373 156.941 211.286 156.68C211.203 156.427 211.089 156.151 210.939 155.938C210.812 155.76 210.499 155.415 210.033 155.552C209.835 155.61 209.689 155.742 209.584 155.872C209.478 156.005 209.386 156.171 209.304 156.359L210.221 156.758C210.283 156.616 210.333 156.537 210.364 156.498C210.397 156.457 210.385 156.491 210.315 156.511C210.108 156.572 210.035 156.393 210.123 156.517C210.187 156.607 210.263 156.772 210.337 156.994C210.407 157.207 210.465 157.441 210.504 157.644L211.486 157.454ZM208.115 164.16C211.669 161.873 211.888 158.776 211.474 157.405L210.516 157.694C210.804 158.645 210.746 161.277 207.574 163.319L208.115 164.16ZM199.972 161.671C200.373 162.295 201.239 163.651 202.583 164.483C203.265 164.906 204.08 165.2 205.024 165.193C205.967 165.186 206.999 164.878 208.115 164.16L207.574 163.319C206.587 163.954 205.738 164.188 205.017 164.193C204.296 164.199 203.663 163.976 203.109 163.633C201.982 162.935 201.223 161.768 200.813 161.13L199.972 161.671ZM199.9 154.682C199.154 156.394 198.938 157.791 199.033 158.949C199.128 160.109 199.534 160.99 199.972 161.671L200.813 161.13C200.439 160.55 200.108 159.824 200.029 158.867C199.95 157.906 200.123 156.675 200.817 155.081L199.9 154.682ZM205.36 151.837C204.088 151.561 201.187 151.728 199.9 154.682L200.817 155.081C201.834 152.746 204.116 152.59 205.148 152.814L205.36 151.837ZM206.066 153.586C206.166 153.522 206.265 153.428 206.33 153.298C206.396 153.164 206.41 153.026 206.393 152.904C206.364 152.683 206.238 152.512 206.15 152.409C205.961 152.19 205.689 152.002 205.509 151.895L204.999 152.755C205.14 152.839 205.306 152.962 205.392 153.062C205.441 153.119 205.412 153.108 205.402 153.036C205.396 152.988 205.4 152.921 205.434 152.854C205.466 152.789 205.508 152.756 205.525 152.746L206.066 153.586ZM206.378 156.856C205.438 155.82 205.358 155.04 205.466 154.542C205.583 154.003 205.946 153.664 206.066 153.586L205.525 152.746C205.224 152.939 204.672 153.486 204.489 154.33C204.297 155.213 204.533 156.311 205.638 157.528L206.378 156.856ZM375.156 153.233C375.819 153.077 376.324 152.804 376.68 152.431C377.038 152.055 377.213 151.61 377.27 151.167C377.38 150.308 377.05 149.436 376.738 148.902L375.875 149.408C376.128 149.839 376.35 150.484 376.278 151.04C376.244 151.304 376.145 151.542 375.956 151.741C375.764 151.943 375.448 152.137 374.927 152.26L375.156 153.233ZM370.918 151.016C370.942 151.372 371.153 152.121 371.802 152.69C372.482 153.285 373.557 153.61 375.156 153.233L374.927 152.26C373.566 152.581 372.845 152.273 372.461 151.937C372.046 151.574 371.925 151.092 371.916 150.95L370.918 151.016ZM370.672 151.48C370.813 151.398 371.002 151.312 371.131 151.285C371.204 151.27 371.181 151.29 371.113 151.264C371.068 151.246 371.011 151.21 370.968 151.148C370.927 151.088 370.919 151.035 370.918 151.016L371.916 150.95C371.908 150.83 371.874 150.699 371.791 150.579C371.706 150.456 371.592 150.377 371.477 150.332C371.27 150.252 371.059 150.278 370.927 150.306C370.644 150.365 370.347 150.512 370.166 150.617L370.672 151.48ZM370.681 156.266C369.131 154.245 370.1 152.173 370.795 151.378L370.043 150.719C369.186 151.698 367.927 154.317 369.887 156.874L370.681 156.266ZM375.971 159.199C375.282 159.245 374.487 159.184 373.611 158.788C372.732 158.392 371.739 157.645 370.681 156.266L369.887 156.874C371.024 158.356 372.141 159.223 373.2 159.7C374.261 160.179 375.228 160.251 376.037 160.197L375.971 159.199ZM381.161 154.345C381.238 155.516 381.031 156.372 380.687 157.006C380.342 157.639 379.841 158.085 379.273 158.403C378.115 159.051 376.727 159.149 375.971 159.199L376.037 160.197C376.777 160.148 378.382 160.048 379.761 159.275C380.462 158.883 381.114 158.312 381.565 157.484C382.016 156.655 382.246 155.603 382.159 154.279L381.161 154.345ZM377.665 149.046C378.636 149.255 380.911 150.58 381.161 154.345L382.159 154.279C381.879 150.062 379.277 148.37 377.876 148.068L377.665 149.046ZM376.703 148.851C376.609 148.728 376.564 148.646 376.545 148.6C376.525 148.551 376.549 148.578 376.533 148.649C376.486 148.859 376.293 148.837 376.445 148.82C376.555 148.807 376.736 148.821 376.966 148.864C377.186 148.905 377.418 148.968 377.616 149.033L377.925 148.082C377.696 148.007 377.422 147.932 377.151 147.881C376.889 147.832 376.592 147.797 376.334 147.826C376.116 147.85 375.663 147.958 375.557 148.431C375.512 148.633 375.557 148.825 375.62 148.979C375.684 149.136 375.785 149.297 375.91 149.459L376.703 148.851Z" fill="url(#paint2_linear_14_72)"/>
<path d="M470.414 168C466.414 163.6 462.08 162.167 460.414 162L461.914 174C462.08 178 461.414 188.4 457.414 198C452.414 210 443.914 219.5 432.414 229C423.214 236.6 407.914 245.833 401.414 249.5L372.914 266.5C369.414 268.5 359.314 274.7 346.914 283.5C331.414 294.5 325.414 302.5 316.914 311.5C310.114 318.7 304.747 328.833 302.914 333C300.414 338.333 296.114 351.6 298.914 362C302.414 375 304.914 378.5 306.914 384C308.514 388.4 316.247 397.833 319.914 402C319.247 397.833 318.214 387.8 319.414 381C320.914 372.5 320.914 374 323.914 365C326.914 356 326.914 358 329.414 353C331.414 349 342.914 336.667 348.414 331C352.247 328 361.014 321.2 365.414 318C370.914 314 377.414 310 381.414 307C385.414 304 397.914 298.5 397.914 298C397.914 297.5 407.414 292.5 413.414 289.5C418.214 287.1 429.414 280.167 434.414 277C436.914 275.333 444.714 269.5 455.914 259.5C467.114 249.5 475.247 236.333 477.914 231C479.58 227.833 483.214 220.2 484.414 215C485.614 209.8 485.58 198.833 485.414 194C485.58 191.167 484.414 183.8 478.414 177C470.914 168.5 475.414 173.5 470.414 168Z" fill="#BEADFA" stroke="#BEADFA"/>
<path d="M123.329 248.029C115.729 260.429 115.496 291.529 116.329 305.529C117.329 299.695 124.129 284.629 143.329 271.029C167.329 254.029 165.329 259.029 183.329 252.529C201.329 246.029 250.829 244.529 266.329 247.529C281.829 250.529 301.329 251.529 302.329 252.029C303.329 252.529 322.329 253.029 349.829 252.029C371.829 251.229 393.251 242.362 401.213 238.029C411.585 232.029 434.029 217.629 440.829 208.029C447.629 198.429 450.996 183.029 451.829 176.529C452.496 173.695 453.029 164.929 449.829 152.529C446.629 140.129 443.162 137.695 441.829 138.029C443.662 139.195 444.929 145.529 435.329 161.529C425.729 177.529 411.329 187.195 405.329 190.029C400.496 192.195 387.029 197.029 371.829 199.029C356.629 201.029 329.829 199.862 318.329 199.029C305.329 198.195 274.106 196.529 253.213 196.529C227.096 196.529 228.829 197.029 207.329 199.029C185.829 201.029 167.829 207.529 151.829 217.529C135.933 227.464 132.869 232.464 123.513 247.729L123.329 248.029Z" fill="#BEADFA" stroke="#BEADFA"/>
<path d="M184.364 432.909H206.818V492.955C206.818 499.894 205.167 505.939 201.864 511.091C198.561 516.212 193.955 520.182 188.045 523C182.136 525.788 175.273 527.182 167.455 527.182C159.545 527.182 152.636 525.788 146.727 523C140.818 520.182 136.227 516.212 132.955 511.091C129.682 505.939 128.045 499.894 128.045 492.955V432.909H150.545V491C150.545 494.212 151.242 497.076 152.636 499.591C154.061 502.106 156.045 504.076 158.591 505.5C161.136 506.924 164.091 507.636 167.455 507.636C170.818 507.636 173.758 506.924 176.273 505.5C178.818 504.076 180.803 502.106 182.227 499.591C183.652 497.076 184.364 494.212 184.364 491V432.909ZM300.148 432.909V526H281.057L244.011 472.273H243.42V526H220.92V432.909H240.284L276.92 486.545H277.693V432.909H300.148ZM314.295 526V432.909H379.205V451.182H336.795V470.273H375.886V488.591H336.795V507.727H379.205V526H314.295ZM390.25 451.182V432.909H468.932V451.182H440.705V526H418.523V451.182H390.25Z" fill="#5B0888"/>
<defs>
<linearGradient id="paint0_linear_14_72" x1="204.023" y1="253" x2="204.023" y2="355.296" gradientUnits="userSpaceOnUse">
<stop stop-color="#713ABE"/>
<stop offset="1" stop-color="#5B0888"/>
</linearGradient>
<linearGradient id="paint1_linear_14_72" x1="283.897" y1="42" x2="283.897" y2="213.243" gradientUnits="userSpaceOnUse">
<stop stop-color="#9D76C1"/>
<stop offset="1" stop-color="#5B0888"/>
</linearGradient>
<linearGradient id="paint2_linear_14_72" x1="283.897" y1="42" x2="283.897" y2="213.243" gradientUnits="userSpaceOnUse">
<stop stop-color="#3870BF"/>
<stop offset="1" stop-color="#26487B" stop-opacity="0"/>
<stop offset="1" stop-color="#274B80"/>
</linearGradient>
</defs>
</svg>
